<?xml version="1.0" encoding="UTF-8" standalone="no"?>
<svg
   xmlns:dc="http://purl.org/dc/elements/1.1/"
   xmlns:cc="http://creativecommons.org/ns#"
   xmlns:rdf="http://www.w3.org/1999/02/22-rdf-syntax-ns#"
   xmlns:svg="http://www.w3.org/2000/svg"
   xmlns="http://www.w3.org/2000/svg"
   xmlns:xlink="http://www.w3.org/1999/xlink"
   xmlns:sodipodi="http://sodipodi.sourceforge.net/DTD/sodipodi-0.dtd"
   xmlns:inkscape="http://www.inkscape.org/namespaces/inkscape"
   version="1.1"
   x="0px"
   y="0px"
   width="336px"
   height="337px"
   viewBox="0 0 336 337"
   enable-background="new 0 0 336 337"
   xml:space="preserve"
   id="svg2"
   inkscape:version="0.48.3.1 r9886"
   sodipodi:docname="premier-league-logo.svg"><metadata
   id="metadata58"><rdf:RDF><cc:Work
       rdf:about=""><dc:format>image/svg+xml</dc:format><dc:type
         rdf:resource="http://purl.org/dc/dcmitype/StillImage" /></cc:Work></rdf:RDF></metadata><sodipodi:namedview
   pagecolor="#ffffff"
   bordercolor="#666666"
   borderopacity="1"
   objecttolerance="10"
   gridtolerance="10"
   guidetolerance="10"
   inkscape:pageopacity="0"
   inkscape:pageshadow="2"
   inkscape:window-width="640"
   inkscape:window-height="480"
   id="namedview56"
   showgrid="false"
   inkscape:zoom="0.70029674"
   inkscape:cx="168"
   inkscape:cy="168.5"
   inkscape:window-x="0"
   inkscape:window-y="0"
   inkscape:window-maximized="0"
   inkscape:current-layer="svg2" />
<defs
   id="defs4">
</defs>
<g
   id="g6">
	<defs
   id="defs8">
		<rect
   id="SVGID_1_"
   width="336.008"
   height="337.201" />
	</defs>
	<clipPath
   id="SVGID_2_">
		<use
   xlink:href="#SVGID_1_"
   overflow="visible"
   id="use12" />
	</clipPath>
	<path
   clip-path="url(#SVGID_2_)"
   fill="#FFFFFF"
   d="M327.826,40.991c4.51,0,8.182,3.669,8.182,8.176   c0,0.733-0.249,1.968-0.477,2.792c-0.004,0.006-0.248,0.238-63.558,238.511l-0.046,0.13c-2.192,6.458-7.035,11.66-13.291,14.277   L258.346,305c0,0-86.337,30.771-90.337,32.196C164.003,335.772,77.662,305,77.662,305l-0.287-0.123   c-6.255-2.617-11.099-7.819-13.291-14.277l-0.051-0.13C0.725,52.198,0.48,51.966,0.48,51.959C0.249,51.135,0,49.9,0,49.167   c0-4.506,3.671-8.176,8.182-8.176H327.826z"
   id="path14" />
	<path
   clip-path="url(#SVGID_2_)"
   fill="#000043"
   d="M8.182,43.381c-3.191,0-5.792,2.586-5.792,5.79   c0,0.523,0.076,1.026,0.202,1.505l63.482,238.429c1.842,6.146,6.293,11.09,12.216,13.569l0.219,0.089l89.495,31.9l89.499-31.9   l0.219-0.089c5.918-2.479,10.37-7.423,12.216-13.569l63.478-238.429c0.131-0.479,0.203-0.982,0.203-1.505   c0-3.204-2.602-5.79-5.788-5.79H8.182z"
   id="path16" />
	<path
   clip-path="url(#SVGID_2_)"
   fill="#FFFFFF"
   d="M314.215,52.261c3.887,0,7.035,3.147,7.035,7.036   c0,0.622-0.076,1.227-0.231,1.795l-59.587,225.462c-1.075,3.583-3.722,6.5-7.136,7.925l-86.291,30.763l-86.287-30.763   c-3.415-1.425-6.062-4.342-7.137-7.925L14.994,61.092c-0.156-0.569-0.236-1.174-0.236-1.795c0-3.889,3.153-7.036,7.035-7.036   H314.215z"
   id="path18" />
	<path
   clip-path="url(#SVGID_2_)"
   fill="#FFFFFF"
   d="M111.405,0.731L111.405,0.731c0,0-5.298,6.23-5.737,6.747   c-0.464-0.491-5.598-5.931-5.598-5.931c-0.514-0.552-1.294-0.775-2.027-0.59c-0.729,0.186-1.298,0.755-1.492,1.488   c0,0.004-0.569,2.207-0.637,2.458c-0.531-0.708-1.686-2.241-1.686-2.241c-0.662-0.811-1.821-1.009-2.702-0.474   c-0.611,0.375-0.991,1.056-0.991,1.777l0.168,0.834c0.852,1.929,3.714,8.696,4.818,14.796c0-0.025,0.038,0.078,0.08,0.168   c-0.447,0.234-2.104,1.092-2.104,1.092c-0.4,0.264-0.653,0.683-0.789,1.148c-0.308-0.061-0.805-0.16-0.805-0.16   c-2.517-0.16-4.401,0.839-5.645,2.966c-0.641,1.083-1.058,2.62-1.058,3.912l0.114,1.096c0.207,1.018,0.679,1.57,1.13,1.887   c-2.061,2.55-3.128,6.63-4.055,10.268l-0.54,2.093c-1.188,4.451-3.785,8.184-6.609,9.514c-0.81,0.384-1.315,1.157-1.315,2.03   l0.093,0.63c0.493,1.623,3.094,2.689,5.514,3.223c-2.639,3.714-4.013,8.393-4.013,13.948c0,1.868,0.151,3.845,0.438,5.878   l0.059,0.392c0.224,2.438,1.804,2.746,2.285,2.78c0.253,0.017,0.936-0.029,1.572-0.578c-0.029,0.354-0.147,1.748-0.147,1.748   c0,6.972,2.095,13.044,3.41,15.238c0.456,0.754,1.26,1.166,2.112,1.07c0.333-0.04,0.624-0.16,0.885-0.329   c0,0.021,0.008,0.095,0.008,0.095c0,2.755-0.67,6.268-2.542,7.809c-0.531,0.436-0.843,1.066-0.843,1.73l0.084,0.574   c0.109,0.39,0.565,1.494,2.112,1.642c1.096,0.104,4.102-0.474,6.867-2.677c0.025,0.461,0.055,0.984,0.055,0.984   c0,6.932-3.284,12.793-5.357,14.857c-0.426,0.44-0.662,1.005-0.662,1.593l0.089,0.617c0.308,0.984,1.117,1.575,2.415,1.813   c1.918,0.358,4.966,0.042,7.668-1.368c1.1,10.949,3.764,15.632,5.202,18.149l0.535,0.963c0.915,1.84,1.003,3.176,1.108,4.869   l0.021,0.324c0.62,9.506,2.365,14.775,3.41,17.917l0.607,1.96c0.379,1.475,0.569,2.714,0.569,3.667l-0.126,1.037   c-0.034,0.101-0.055,0.173-1.007,0.261l-0.304,0.03c0.021-0.004-1.863,0.029-1.863,0.029c-1.366-0.034-2.795-0.084-4.675,0.704   c-4.831,2.032-6.703,8.232-6.437,10.433c0.232,1.872,1.518,3.043,3.364,3.043h27.214c0.906,0,1.72-0.615,1.985-1.484l0.084-0.556   c0-0.75-0.354-1.399-0.948-1.779c-5.923-3.866-9.75-11.748-9.75-20.082c0-8.081,3.954-15.211,11.12-20.103   c0.953,0.402,2.213,0.601,3.807,0.561c0.076,0.036,0.126,0.065,0.24,0.114c0.569,0.253,1.542,0.685,3.279,0.685l1.29,0.036   l2.866,0.063c1.556,0,2.377-0.396,3.056-0.997c0.329,0.291,0.738,0.596,1.349,0.815c1.977,0.696,8.114-0.017,8.173-0.021   c1.471-0.232,2.698-1.244,3.49-2.826c1.555-0.116,4.169-0.346,5.476-0.634c1.382-0.308,2.019-0.367,2.31-0.367   c0.135,0.331,1.079,2.686,1.079,2.686c0.004,0.013,0.13,0.253,0.13,0.253c1.429,2.634,4.717,7.438,7.174,9.604   c4.662,4.093,9.708,8.093,11.099,8.938c0.189,0.118,0.447,0.341,0.447,1.007l-0.097,0.812c-0.202,0.988-1.509,5.452-3.09,7.514   c-1.235,1.602-1.863,2.095-3.372,2.036c-2.104-0.097-5.939,0.009-7.895,1.741c-4,3.503-4.203,7.549-4.203,8.325l0.021,0.417   c0.076,1.265,1.05,3.136,3.393,3.136h15.344c1.964,0,2.854-0.733,3.524-1.521l0.093-0.118l0.573-0.704l1.176-1.433   c0,0-0.038,0.021-0.051,0.03c0.152-0.118,0.443-0.375,1.189-1.045c0.771-0.645,1.736-1.45,2.365-2.302   c0.662-0.919,1.02-1.998,1.332-2.942c0,0-0.042,0.025-0.068,0.042c0.123-0.203,0.291-0.649,0.717-1.775   c0.599-1.277,3.815-5.998,6.681-9.994c1.003-1.402,1.884-3.008,1.884-4.951c0-1.458-0.501-3.102-1.825-4.984   c-0.004-0.008-0.957-1.231-0.957-1.231c-1.72-2.122-5.277-6.529-5.771-9.992c-0.004-0.017-0.025-0.186-0.025-0.186   c-0.004-0.004-0.207-1.903-0.207-1.903c0-0.807,0.203-1.511,0.771-2.792c0,0.008,0.253-0.522,0.253-0.522   c0.358-0.778,0.62-1.195,0.759-1.256c0.624-0.021,3.047,3.172,4.219,4.704c1.682,2.224,3.777,4.982,6.471,7.758   c2.394,2.477,4.468,4.778,6.913,7.687c1.745,2.055,5.695,10.347,6.437,12.483c0.569,1.602,0.616,3.136,0.485,3.541   c-0.219,0.691-0.573,1.273-0.986,1.956l-0.818,1.395c-1.227,2.297-1.197,5.349-0.62,7.364c0.81,2.875,3.094,2.794,4.325,2.749   l0.683-0.017l13.91,0.008c2.913,0,3.389-2.205,3.545-2.925l0.029-0.152c0-0.013,0.16-1.483,0.16-1.483   c0-2.1-0.759-4.346-2.036-5.999c-0.012-0.021-1.087-1.18-1.087-1.18c-1.012-0.991-2.255-2.209-3.09-4.818   c-1.391-4.337-1.745-7.954-2.086-11.444c0.004,0.025-0.029-0.325-0.029-0.325l-0.717-5.617c-0.409-2.24-1.121-3.448-1.876-4.725   c-0.489-0.833-0.995-1.693-1.521-3.073c-0.354-1.005-0.919-10.378-0.919-14.323l0.051-3.431c0-6.863-0.848-12.469-2.483-16.739   c9.088-3.146,15.183-9.828,15.183-16.726l-0.017-0.634c-0.797-14.952-24.326-15.44-31.518-15.236l-0.561,0.021   c-12.857,0.428-16.141-1.425-16.958-2.245c-0.257-0.259-0.312-0.449-0.312-0.655c0.021-0.761,2.301-2.15,3.806-2.527   c1.362,1.094,3.591,2.767,7.596,2.173c3.929-0.592,7.322-3.657,9.48-6.125c1.294-1.481,3.33-3.505,6.091-3.985   c1.943-0.337,2.365-1.479,2.449-2.137c0.059-0.525,0.009-1.833-1.838-2.637c-3.692-1.606-9.345-2.763-14.311-1.355   C201.916,62.15,201.853,62,201.853,62c-0.522-0.717-1.298-1.033-2.112-0.925c-7.006,0.967-9.223,5.292-10.075,7.054   c-6.55,2.43-10.311,6.496-10.311,11.179l0.013,0.337c0.421,12.043,19.496,11.779,26.679,11.68l0.236-0.004   c7.744-0.107,19.576,1.41,20.444,6.042c0.004,0.013,0.046,0.501,0.046,0.501c0,0.664-0.295,1.394-0.869,2.131   c-1.606,2.051-5.088,3.69-8.7,4.119c-2.419-2.327-5.362-4.622-13.792-7.04c0,0-0.215-0.044-3.785-0.757   c-5.577-0.97-14.905-2.592-21.57-7.271c-10.095-7.083-14.53-9.497-20.145-12.544l-1.185-0.639   c-3.355-1.821-6.226-4.053-8.637-6.569c1.143-0.123,2.15-0.363,2.921-0.803c0.599-0.346,0.986-0.967,1.037-1.663v-0.004   c0-0.771-0.291-1.389-0.822-1.788c-2.984-2.261-4.228-4.47-5.602-8.004c-0.852-2.173-1.652-3.788-2.546-5.233   c0.139-0.055,0.287-0.104,0.287-0.104c0.556-0.383,0.889-1.018,0.889-1.705c-0.017-5.46-3.174-9.392-5.063-11.739l-0.716-0.921   c-0.67-0.845-1.214-2.27-1.214-3.168l0.114-0.582h-0.004c0.08-0.152,0.168-0.308,0.168-0.308l0.455-0.915l0.207-0.812v-0.038   c0-0.337-0.156-0.618-0.316-0.902c0.535-0.362,0.902-0.86,0.94-1.446c0-0.015,0.025-0.683,0.025-0.683l-0.11-1.476   c-0.308-1.985-1.951-5.333-5.05-5.971c-1.37-0.285-2.234-0.051-2.862,0.221c-0.211-0.173-0.67-0.552-0.94-0.773   c0.245-0.276,0.502-0.552,0.561-0.89c1.083-6.081,3.954-12.854,4.805-14.787c0-0.004,0.181-0.839,0.181-0.839   c0-0.717-0.383-1.397-0.995-1.772c-0.877-0.535-2.04-0.341-2.689,0.461c-0.008,0.008-1.092,1.446-1.703,2.257   c-0.215-0.824-0.637-2.466-0.637-2.466c-0.186-0.729-0.759-1.298-1.497-1.488c-0.733-0.185-1.505,0.038-2.023,0.59   c0.038-0.042,0.038-0.042-2.555,2.708c0,0-2.605,2.761-3.035,3.218c-0.442-0.517-5.737-6.742-5.737-6.742   c-0.396-0.462-0.97-0.729-1.589-0.729C112.375,0.002,111.802,0.27,111.405,0.731"
   id="path20" />
	<path
   clip-path="url(#SVGID_2_)"
   fill="#000043"
   d="M128.073,10.378l-0.856-6.7l-7.558,7.558l-6.761-8.448l-6.761,8.448   l-7.554-7.558l-0.86,6.7c0,0-3.903-4.015-5.071-5.457c1.875,4.255,4.063,10.441,4.949,14.84c4.616-1.467,10.378-1.886,15.297-1.886   c4.919,0,10.682,0.419,15.302,1.886c0.889-4.399,3.073-10.584,4.944-14.84C131.984,6.363,128.073,10.378,128.073,10.378    M100.387,16.964l0.135-4.787l4.67,3.967C103.379,16.342,101.731,16.64,100.387,16.964 M112.897,15.765   c-1.425,0-2.815,0.038-4.139,0.112l4.139-4.778l4.144,4.778C115.718,15.803,114.331,15.765,112.897,15.765 M120.611,16.145   l4.671-3.967l0.13,4.787C124.068,16.64,122.424,16.342,120.611,16.145"
   id="path22" />
	<path
   clip-path="url(#SVGID_2_)"
   fill="#000043"
   d="M234.344,180.658c-0.948-1.256-3.157-2.487-4.472-6.58   c-2.234-6.964-1.884-12.096-2.879-17.521c-0.59-3.22-1.926-3.842-3.267-7.364c-0.599-1.562-1.185-9.955-1.041-15.639   c0.13-4.829,0.135-14.239-3.107-20.581c10.028-2.641,16.103-8.926,15.736-15.816c-0.569-10.69-14.64-13.596-29.149-13.198   c-4.35,0.116-20.263,0.862-19.812-5.029c0.194-2.556,4.236-4.377,5.927-4.468c1.416,1.075,3.617,2.801,7.25,2.167   c7.693-1.33,8.33-9.501,16.296-10.152c-3.208-2.646-12.073-3.708-16.907-0.656c0-0.932,0.345-1.804,0.729-2.417   c-6.449,0.89-7.781,4.749-8.658,6.496c-6.951,2.327-9.906,6.025-9.771,9.794c0.35,10.079,18.298,9.638,24.613,9.613   c6.593-0.021,21.043,0.799,22.341,7.678c0.876,4.641-5.392,8.884-12.229,9.25c-9.518-10.673-25.351-5.541-40.167-16.096   c-17.139-12.201-26.126-13.234-32.512-23.205c1.542,0.666,4.801,1.111,6.731,0c-3.364-2.542-4.78-5.088-6.238-8.839   c-1.771-4.527-3.094-6.517-5.581-8.732c1.496-0.061,3.081,0.626,4.08,1.001c-0.013-5.429-3.811-9.246-5.319-11.31   c-1.29-1.783-2.576-4.458-0.688-7.056c-1.977-2.175-3.823-0.873-4.599-0.198c-0.67,0.578-1.21,0.474-0.81-0.847   c0.409-1.389,1.788-3.307,3.465-3.233c1.5,0.065,2.255,1.355,2.571,1.832c0.329-3.191-0.864-5.51-2.984-5.918   c-1.252-0.238-2.437,0.16-3.339,0.763c-0.746-1.237-1.378-2.15-3.612-2.913c-0.936-0.324-4.245-1.066-6.803-1.347   c-1.8,1.399-3.739,3.479-5.341,5.996c-0.177-1.201,0.177-3.851,0.919-6.321c-6.399-0.219-16.085,0.39-20.625,3.364   c0.915,0.858,1.45,2.02,1.526,2.74c0.093,0.988-0.278,0.828-0.67,0.423c-0.417-0.407-1.653-1.907-3.621-2.051   c-4.148-0.32-4.793,4.77-3.861,6.441c0.392-1.227,1.227-2.232,2.538-2.293c2.036-0.09,3.478,2.47,3.722,3.807   c0.181,0.967-0.308,1.041-0.944,0.447c-0.843-0.795-1.699-1.063-2.778-0.869c-3.861,0.691-5.277,7.377-6.609,13.19   c-1.269,5.53-4.249,9.345-7.896,10.888c0.805,1.138,4.211,2.529,7.777,2.163c-7.798,6.829-6.462,18.861-5.429,22.398   c0.409-1.429,2.466-6.955,6.171-8.604c-5.063,10.296-1.572,22.64,0.435,25.933c0.329-1.442,1.15-3.086,2.04-4.03   c1.926,3.102,1.952,11.948-2.188,15.466c2.5,0.12,6.205-0.757,8.393-5.229c2.458,9.484-2.104,18.777-5.21,21.873   c0.89,0.478,6.483,1.406,9.716-2.738c0.868,15.069,4.62,19.592,5.788,21.932c1.172,2.348,1.256,3.99,1.349,5.975   c0.67,14.455,5.585,20.252,4.346,25.077c-0.409,1.598-2.12,1.695-3.064,1.796c-2.184,0.236-2.782-0.126-5.101,0.59   c-4.388,1.357-5.345,6.685-5.168,8.161c0.11,0.936,0.582,1.214,1.311,1.214h20.28c1.475,0,1.96-0.805,2.428-2.655   c-4.523-4.806-7.397-11.272-7.397-18.394c0-9.984,5.45-18.828,13.535-23.456c0,0,0.501,1.326,3.452,1.227   c1.21-0.038,1.319-0.773,2.049-0.704c1.096,0.095,0.569,1.071,2.403,1.404c1.079,0.189,2.107,0.244,3.338,0.236   c1.433-0.017,1.931-0.523,2.251-0.919c0.48-0.59,1.235-0.5,1.593,0.013c0.282,0.407,0.637,0.773,1.345,0.984   c1.108,0.329,5.32,0.35,6.968-0.025c1.201-0.28,1.581-1.005,1.998-1.882c0.228-0.493,0.4-1.058,1.281-1.054   c2.774,0.036,5.501-0.527,7.099-0.871c2.238-0.489,2.837,0.445,3.237,1.644c3.136,9.415,13.67,16.41,18.282,19.856   c1.357,1.014,1.665,2.217,1.294,3.958c-0.231,1.142-1.585,5.931-3.452,8.316c-1.636,2.095-2.411,2.618-5.117,2.871   c-1.307,0.123-4.924,0.067-6.66,1.56c-2.816,2.407-3.183,6.197-3.128,6.77c0,0,0.055,1.159,1.307,1.159h14.673   c1.37,0,2.053-0.249,2.576-0.898c0.367-0.455,1.02-1.273,1.729-2.107c0.7-0.826,2.398-1.737,3.393-3.195   c0.746-1.1,1.075-2.841,1.75-4.405c1.176-2.715,4.181-6.574,6.829-10.265c1.732-2.426,1.935-4.339,0.05-7.478   c-1.361-2.266-10.77-11.063-5.859-19.1c1.007-1.64,2.723-2.702,4.152-1.33c1.513,1.46,2.002,4.731,16.157,18.893   c1.787,1.783,2.331,2.677,2.946,3.847c1.914,3.638,4.258,8.81,4.945,10.462c0.957,2.289,0.796,3.887,0.497,4.822   c-0.447,1.4-1.218,2.331-1.943,3.693c-0.932,1.737-0.949,4.299-0.443,5.834c0.396,1.188,1.328,1.222,2.984,1.222h13.81   c1.328,0,1.37-0.695,1.534-1.433C236.135,185.177,235.819,182.567,234.344,180.658 M97.377,36.393   c0.4-0.255,1.484-0.902,2.968-1.417c1.952-0.691,2.171-1.26,1.821-3.273c-0.152-0.915,0.477-1.303,1.492-1.678   c0.712-0.255,2.976-0.885,4.489-1.21c0.729,0.459,3.343,3.954,4.768,5.992c1.425-2.038,4.03-5.533,4.759-5.992   c2.163,0.437,4.325,1.083,6.125,1.701c1.64,0.567,2.382,1.218,3.17,3.376c0.599,1.676,0.834,3.604,0.834,3.604   s-1.092,0.229-2.698,0.048c-1.833-0.217-2.866-0.799-3.777-0.605c-1.564,0.314-3.511,2.287-3.688,3.09   c-0.337,1.68,0.274,3.026,0.388,3.458c0.497-1.832,1.467-3.092,2.676-3.166c0.502-0.034,1.164,0.316,2.095,0.428   c0.544,0.065,1.092,0.044,1.581-0.289c1.143-0.77,1.876-1.688,2.626-2.076c0,0,1.066,1.937,1.581,3.638   c0.354,1.214-0.228,2.177-2.264,3.151c-1.172,0.563-2.773,1.547-3.781,2.445c-0.995,0.894-0.78,1.973-0.278,2.787   c0.931,1.511,1.728,3.614,1.842,5.324c0.051,0.784-0.24,1.372-0.834,1.709c-0.771,0.449-2.065,0.754-3.709,0.672   c-1.766-0.083-4.025-2.249-5.821-2.827l0.354-2.824c0,0,2.77-1.734,4.38-3.18c0.375-0.333,0.207-1.026,0.16-1.484   c-1.442-0.476-3.786-0.831-5.691-0.831c-1.479,0.004-3.225,0.255-4.603,0.544c0.409-1.876,0.852-5.413,0.181-7.51   c-0.24-0.803-2.896-2.763-4.456-3.092c-0.915-0.177-1.943,0.403-3.781,0.618c-1.598,0.173-3.073-0.228-3.073-0.228   S97.268,36.47,97.377,36.393 M112.071,65.714c0.114,0.618,0.215,2.801-0.607,4.028c-0.152,0.24-0.333,0.276-0.607,0   c-0.586-0.584-1.889-1.935-3.528-2.544c-0.733-0.285-3.692-0.643-2.765-5.054c0.093-0.428,0.24-0.75,0.944-0.955   c0.889-0.245,2.07-0.854,3.604-2.468c0.384-0.411,1.18-0.712,2.053-0.432c0.683,0.217,1.159,0.337,1.754,0.337   c0.59,0,1.07-0.12,1.749-0.337c0.873-0.28,1.673,0.021,2.057,0.432c1.534,1.615,2.71,2.175,3.748,2.521   c0.645,0.215,0.712,0.794,0.493,1.187c-0.24,0.432-0.595,1.277-0.755,1.981c-0.147,0.7-0.383,1.96-1.699,2.9   c-0.561,0.402-2.137,1.206-3.296,2.487c-0.236,0.251-0.489,0.325-0.518-0.055c-0.03-0.382-0.114-3.134-1.931-4.498   C112.287,64.886,111.945,65.071,112.071,65.714 M102.553,57.427c-0.59-0.337-0.885-0.93-0.83-1.713   c0.151-2.26,1.496-5.206,2.761-6.567c0.194-0.198,1.931-0.717,2.795,0.057c1.631,1.463,4.447,3.242,4.447,3.242l0.354,2.824   c-1.788,0.582-4.047,2.744-5.813,2.826C104.619,58.177,103.329,57.872,102.553,57.427 M97.04,44.342   c-0.742-0.5-1.264-2.196,0.574-6.186c0.75,0.386,2.259,1.515,3.406,2.276c0.493,0.331,1.033,0.35,1.572,0.289   c0.936-0.112,1.602-0.47,2.104-0.432c1.391,0.09,1.412,3.172,1.429,3.553c0.021,0.388-0.156,0.401-0.404,0.19   c-0.632-0.506-1.202-0.498-1.644-0.498c-0.611,0-2.065,0.584-2.677,0.75C100.779,44.45,98.325,45.211,97.04,44.342 M102.124,97.638   c-5.265-10.378,6.116-12.776,10.024-17.512C111.422,85.315,103.637,87.675,102.124,97.638 M117.357,115.72   c1.298-2.466,4.599-9.185,1.606-18.242c-3.149,1.718-6.201,6.375-7.296,11.042c-3.427-13.343,6.816-17.982,9.155-29.589   c3.014,5.347-4.219,12.543,1.509,18.79c3.596-14.776,17.519-9.501,16.73-27.565c6.289,14.547-2.896,18.444-4.907,29.416   c-1.893-3.284-2.049-7.373-0.236-11.936C124.764,92.083,129.746,111.325,117.357,115.72 M217.841,130.049   c-0.409,1.874-2.065,2.361-2.946,1.119c-1.619-2.272-2.297-14.007-15.011-19.991c-1.922-0.906-2.542,0.173-2.048,1.296   c1.994,4.424,2.841,8.584,2.268,12.732c-0.186,1.351-1.066,2.03-1.854,0.576c-0.7-1.305-2.171-3.809-3.334-4.926   c-2.188-2.097-5.109-2.076-7.676-1.739c-2.567,0.339-13.379,3.634-15.744,0.689c-1.458-1.808-3.532-5.598-2.373-10.19   c0.308-1.218-0.776-1.627-2.041-0.765c-3.844,2.618-2.348,11.651-2.091,13.348c0.295,1.956,0.417,3.539-1.315,5.193   c-2.639,2.525-6.892,7.101-8.607,8.288c-1.711,1.199-3.486,0.976-4.671,2.122c-0.906,0.89-0.868,3.229-2.386,3.674   c-0.75,0.221-2.419,0.324-3.625,0.152c-1.189-0.169-1.787-0.329-1.939-2.241c-0.063-0.712-0.548-0.959-1.176-0.029   c-0.485,0.708-0.94,1.458-1.994,1.743c-1.206,0.329-2.841,0.458-4.304,0.144c-1.063-0.23-1.518-0.527-1.518-1.551   c0-0.449,0.021-0.849-0.008-1.13c-0.038-0.362-0.367-0.398-0.776-0.116c-0.716,0.474-1.024,1.652-2.517,1.703   c-0.851,0.032-3.246,0.027-2.533-2.654c0.4-1.499,1.378-5.84,6.635-6.871c2.07-0.407,7.756,0.223,9.641-0.135   c2.078-0.388,3.629-1.619,3.629-2.986s-4.27-1.049-4.527-2.331c-0.489-2.421,7.128-4.259,6.736-6.726   c-0.299-1.886-2.416-1.924-2.752-3.288c-0.354-1.375,2.331-5.094,2.331-8.216c0-4.148-2.331-6.504-2.98-9.741   c-0.624-3.101,0.072-7.261,1.442-9.35c0.965-1.486,1.669-1.92,3.849-2.154c7.596-0.824,17.211,6.944,19.773,8.534   c8.401,5.21,13.101,6.268,23.555,8.152c6.264,1.148,13.291,1.753,18.572,9.164C216.273,115.431,219.055,124.584,217.841,130.049"
   id="path24" />
	<path
   clip-path="url(#SVGID_2_)"
   fill="#ED1A3B"
   d="M148.352,152.527c-3.84-0.205-8.772,0.742-11.575,2.401   c-0.017,3.979-0.426,8.028-1.181,11.524c2.605,1.916,8.03,4.203,11.103,4.864c2.403-1.758,5.484-5.387,7.137-8.159   C152.871,159.2,151,155.061,148.352,152.527 M146.409,156.848c-3.153-0.824-8-0.837-8-0.837c2.71-0.929,6.129-1.696,9.143-1.629   c1.897,2.055,3.17,4.888,4.308,8.116C151.859,162.499,149.082,158.907,146.409,156.848"
   id="path26" />
	<path
   clip-path="url(#SVGID_2_)"
   fill="#ED1A3B"
   d="M152.154,146.434c-0.021-0.019-0.586,0.953-3.3,1.083   c0.329,0.417,0.847,1.355,0.991,1.903c0,0,3.174,0.219,5.239,0.75c2.234,1.998,3.912,4.353,5.105,7.236   c-0.004,0.017-1.383,2.904-3.031,5.745c1.378,2.822,2.938,6.431,3.204,9.721c-1.547,3.971-4.274,7.355-7.752,9.72   c0.472-1.134,0.995-2.677,1.323-4.287c-1.964-0.165-5.399-0.877-7.183-1.458c-2.104,2.613-4.675,4.392-7.925,6.011   c0.472,1.058,1.467,2.571,2.137,3.296c-5.311,0-10.163-1.99-13.843-5.269c0,0,2.651,0.354,5.016-0.093   c-0.548-2.942-0.754-8.051-0.506-10.667c-3.714-1.058-7.069-2.495-9.75-4.168c-0.498,0.976-1.05,2.303-1.387,3.106   c-0.839-4.782-0.097-9.695,2.403-14.024c0.341,0.54,0.683,1.111,0.957,1.594c2.483-1.705,5.885-3.463,9.527-4.626   c0.164-1.473,0.535-3.591,0.843-4.965c0,0-1.374-0.129-1.964-0.742c-0.295-0.293-0.645-0.268-0.902-0.152   c-1.244,0.584-3.064,0.2-3.427,0.027c-6.989,4.127-11.811,11.843-11.811,20.554c0,13.112,10.623,23.734,23.736,23.734   c13.109,0,23.736-10.623,23.736-23.734C163.59,158.123,159.008,150.59,152.154,146.434 M150.207,184.502   c-0.135-1.239-0.329-2.74-0.4-3.545c-1.104-0.982-2.086-1.842-2.904-2.5c1.345,0.396,3.633,0.932,5.155,1.244   C151.817,180.759,150.713,183.643,150.207,184.502 M159.611,162.676l1.256-2.797c0,0,1.813,6.004,0.081,11.025   C160.948,170.904,160.948,166.699,159.611,162.676"
   id="path28" />
	<path
   clip-path="url(#SVGID_2_)"
   fill="#000043"
   d="M81.932,196.643H71.116c1.311,0.767,1.964,3.422,1.964,5.273v26.468   c0,2.369-1.083,4.658-1.901,5.345H80.2v-12.832c0,0,0.767,0.042,1.425,0.042c8.958,0,14.42-5.699,14.42-12.848   C96.045,200.87,90.995,196.794,81.932,196.643 M81.296,214.97c-0.658,0-1.096-0.025-1.096-0.025v-12.503   c0,0,0.662,0.017,1.534,0.017c4.806,0,6.935,2.352,6.935,6.066C88.668,212.509,85.663,214.912,81.296,214.97"
   id="path30" />
	<path
   clip-path="url(#SVGID_2_)"
   fill="#000043"
   d="M117.893,219.485c-0.978-1.745-1.867-2.213-1.867-2.213   c3.646-1.18,6.82-4.827,6.82-10.285c0-7.545-5.24-10.387-13.383-10.387l-11.677,0.009c1.315,0.771,1.973,3.427,1.973,5.277v26.468   c0,2.373-1.088,4.662-1.905,5.345h9.029v-15.196l0.953,0.008c1.762,0,2.087,1.248,2.411,1.851l6.26,13.337h8.797L117.893,219.485z    M108.531,213.335h-1.657v-10.96h1.876c4.565,0,6.66,1.771,6.66,5.328C115.41,211.143,112.796,213.335,108.531,213.335"
   id="path32" />
	<path
   clip-path="url(#SVGID_2_)"
   fill="#000043"
   d="M257.975,219.485c-0.978-1.745-1.867-2.213-1.867-2.213   c3.646-1.18,6.82-4.827,6.82-10.285c0-7.545-5.244-10.387-13.388-10.387l-11.672,0.009c1.311,0.771,1.964,3.427,1.964,5.277v26.468   c0,2.373-1.087,4.662-1.897,5.345h9.025v-15.196l0.953,0.008c1.767,0,2.091,1.248,2.42,1.851l6.259,13.337h8.789L257.975,219.485z    M248.617,213.335h-1.661v-10.96h1.872c4.565,0,6.673,1.771,6.673,5.328C255.5,211.143,252.874,213.335,248.617,213.335"
   id="path34" />
	<path
   clip-path="url(#SVGID_2_)"
   fill="#000043"
   d="M162.992,196.617l8.22,14.129c1.083,1.846,1.715,2.925,2.175,4.165h0.051   c0.485-1.273,1.155-2.302,2.28-4.178l8.25-14.1h7.077v37.095h-7.157c0,0,0.013-24.934,0-24.913h-0.084   c-0.477,1.564-1.458,3.208-2.011,4.131l-6.677,10.913h-3.364l-6.686-10.913c-0.456-0.7-1.244-2.26-1.859-4.131l-0.126,0.017v24.862   h-8.958c0.818-0.688,1.905-2.972,1.905-5.345v-26.468c0-1.851-0.662-4.485-1.973-5.265H162.992z"
   id="path36" />
	<path
   clip-path="url(#SVGID_2_)"
   fill="#000043"
   d="M205.794,233.69h-9.025c0.813-0.679,1.901-2.968,1.901-5.341v-26.472   c0-1.851-0.658-4.494-1.968-5.273l9.088-0.008L205.794,233.69z"
   id="path38" />
	<path
   clip-path="url(#SVGID_2_)"
   fill="#000043"
   d="M128.288,233.699c0.818-0.683,1.905-2.972,1.905-5.345v-26.468   c0-1.851-0.662-4.506-1.973-5.277l21.144,0.029v6.023h-12.03v8.945h10.605v5.939h-10.605v10.083h12.89l-2.529,6.1L128.288,233.699z   "
   id="path40" />
	<path
   clip-path="url(#SVGID_2_)"
   fill="#000043"
   d="M212.205,233.699c0.813-0.683,1.905-2.972,1.905-5.345v-26.468   c0-1.851-0.662-4.506-1.973-5.277l21.14,0.029v6.023h-12.03v8.945h10.618v5.939h-10.618v10.083h12.895l-2.525,6.1L212.205,233.699z   "
   id="path42" />
	<path
   clip-path="url(#SVGID_2_)"
   fill="#000043"
   d="M104.303,278.132c0.818-0.678,1.901-2.972,1.901-5.34v-26.472   c0-1.851-0.657-4.498-1.964-5.273l21.144,0.017v6.023h-12.039v8.958h10.614v5.939h-10.614v10.087h12.899l-2.538,6.095   L104.303,278.132z"
   id="path44" />
	<path
   clip-path="url(#SVGID_2_)"
   fill="#000043"
   d="M233.935,278.132c0.818-0.678,1.905-2.972,1.905-5.34v-26.472   c0-1.851-0.658-4.498-1.969-5.273l21.148,0.017v6.023h-12.034v8.958h10.61v5.939h-10.61v10.087h12.89l-2.529,6.095L233.935,278.132   z"
   id="path46" />
	<path
   clip-path="url(#SVGID_2_)"
   fill="#000043"
   d="M80.95,278.132c0.822-0.678,1.905-2.972,1.905-5.34v-26.472   c0-1.851-0.658-4.498-1.973-5.273l9.113-0.008v31.033h12.334l-2.529,6.095L80.95,278.132z"
   id="path48" />
	<path
   clip-path="url(#SVGID_2_)"
   fill="#000043"
   d="M186.669,271.59v-6.424c0-2.369-1.066-4.679-1.888-5.371h8.902l0.042,15.824   c-3.094,1.72-8.19,3.001-12.616,3.001c-11.689,0-18.484-7.52-18.484-18.767c0-11.583,7.432-19.205,20.499-19.205   c3.444,0,6.736,0.801,8.86,1.703l0.009,7.031c-2.167-1.281-5.855-2.394-9.299-2.394c-7.268,0-12.372,4.215-12.372,12.839   c0,7.807,4.123,12.397,11.601,12.397C183.676,272.227,185.493,271.995,186.669,271.59"
   id="path50" />
	<path
   clip-path="url(#SVGID_2_)"
   fill="#000043"
   d="M159.582,272.943c-0.501-1.399-10.804-31.813-10.804-31.813h-7.246   c0,0-10.311,30.43-10.812,31.825c-0.822,2.268-1.817,4.46-2.862,5.189h8.41l2.386-7.537h12.954l2.432,7.524h8.414   C161.403,277.398,160.399,275.207,159.582,272.943 M140.331,264.98l3.098-9.392c0.662-2.133,1.227-3.992,1.627-6.171h0.042   c0.43,2.179,0.923,4.03,1.577,6.053l3.199,9.51H140.331z"
   id="path52" />
	<path
   clip-path="url(#SVGID_2_)"
   fill="#000043"
   d="M199.939,246.467c0-2.373-1.066-4.679-1.88-5.362l8.827,0.017v23.652   c0,4.86,1.732,7.925,7.507,7.925c5.37,0,7.625-3.048,7.625-7.878v-23.698h6.921v24.027c0,7.596-4.426,13.447-15.023,13.447   c-11.01,0-14.003-5.935-14.003-13.379L199.939,246.467z"
   id="path54" />
</g>
</svg>